<svg xmlns="http://www.w3.org/2000/svg" width="256" height="256" viewBox="0 0 256 256">
  <defs>
    <linearGradient id="sky" x1="0" y1="0" x2="0" y2="1">
      <stop offset="0"   stop-color="#0a1430"/>
      <stop offset="0.45" stop-color="#1d3461"/>
      <stop offset="0.8" stop-color="#3f6aa0"/>
      <stop offset="1"   stop-color="#6f93c2"/>
    </linearGradient>
    <radialGradient id="glow" cx="0.5" cy="0.92" r="0.6">
      <stop offset="0"   stop-color="#cfe0f5" stop-opacity="0.55"/>
      <stop offset="1"   stop-color="#cfe0f5" stop-opacity="0"/>
    </radialGradient>
  </defs>

  <!-- rounded-square sky -->
  <rect x="0" y="0" width="256" height="256" rx="48" fill="url(#sky)"/>
  <rect x="0" y="0" width="256" height="256" rx="48" fill="url(#glow)"/>

  <!-- distant murmuration: a drifting scatter of small birds -->
  <g fill="#0b1226" opacity="0.78">
    <path d="M62 150 q4 -4 8 0 q4 -4 8 0 q-4 3 -8 1 q-4 2 -8 -1z"/>
    <path d="M86 138 q3.4 -3.4 6.8 0 q3.4 -3.4 6.8 0 q-3.4 2.6 -6.8 0.8 q-3.4 1.8 -6.8 -0.8z"/>
    <path d="M104 162 q3 -3 6 0 q3 -3 6 0 q-3 2.3 -6 0.7 q-3 1.6 -6 -0.7z"/>
    <path d="M150 144 q3.4 -3.4 6.8 0 q3.4 -3.4 6.8 0 q-3.4 2.6 -6.8 0.8 q-3.4 1.8 -6.8 -0.8z"/>
    <path d="M176 158 q3 -3 6 0 q3 -3 6 0 q-3 2.3 -6 0.7 q-3 1.6 -6 -0.7z"/>
    <path d="M196 140 q2.6 -2.6 5.2 0 q2.6 -2.6 5.2 0 q-2.6 2 -5.2 0.6 q-2.6 1.4 -5.2 -0.6z"/>
    <path d="M132 176 q2.6 -2.6 5.2 0 q2.6 -2.6 5.2 0 q-2.6 2 -5.2 0.6 q-2.6 1.4 -5.2 -0.6z"/>
    <path d="M72 178 q2.2 -2.2 4.4 0 q2.2 -2.2 4.4 0 q-2.2 1.7 -4.4 0.5 q-2.2 1.2 -4.4 -0.5z"/>
  </g>

  <!-- the starling, banking in flight -->
  <path fill="#05080f" d="M128 118
    C 104 92, 74 84, 36 92
    C 70 96, 98 108, 122 132
    C 116 140, 112 152, 112 164
    C 120 156, 126 146, 130 138
    C 134 146, 140 156, 148 164
    C 148 152, 144 140, 138 132
    C 162 108, 190 96, 224 92
    C 186 84, 156 92, 132 118
    C 131 118, 129 118, 128 118 Z"/>
</svg>
